<svg width="28" height="34" viewBox="0 0 28 34" fill="none" xmlns="http://www.w3.org/2000/svg">
<path d="M17.3333 0.333252H4.00001C3.11595 0.333252 2.2681 0.684441 1.64298 1.30956C1.01786 1.93468 0.666672 2.78253 0.666672 3.66659V30.3333C0.666672 31.2173 1.01786 32.0652 1.64298 32.6903C2.2681 33.3154 3.11595 33.6666 4.00001 33.6666H24C24.8841 33.6666 25.7319 33.3154 26.357 32.6903C26.9821 32.0652 27.3333 31.2173 27.3333 30.3333V10.3333L17.3333 0.333252ZM19.3333 30.3333H17L14 18.9999L11 30.3333H8.66667L5 15.3333H7.50001L9.83334 26.6666L12.8333 15.3333H15L18 26.6666L20.3333 15.3333H22.8333L19.3333 30.3333ZM15.6667 11.9999V2.83325L24.8333 11.9999H15.6667Z" fill="black"/>
</svg>
