<svg width="12" height="14" viewBox="0 0 12 14" fill="none" xmlns="http://www.w3.org/2000/svg">
<path fill-rule="evenodd" clip-rule="evenodd" d="M1.73334 1.13332C1.43879 1.13332 1.2 1.3721 1.2 1.66665V12.3333C1.2 12.6278 1.43879 12.8667 1.73334 12.8667H10.2667C10.5612 12.8667 10.8 12.6278 10.8 12.3333V5.39998H7.06667C6.77212 5.39998 6.53334 5.1612 6.53334 4.86665V1.13332H1.73334ZM7.6 1.88757L10.0458 4.33332H7.6V1.88757ZM0.133335 1.66665C0.133335 0.782992 0.849676 0.0666504 1.73334 0.0666504H7.06667C7.20812 0.0666504 7.34378 0.122842 7.44379 0.222864L11.7105 4.48953C11.8105 4.58954 11.8667 4.7252 11.8667 4.86665V12.3333C11.8667 13.2169 11.1503 13.9333 10.2667 13.9333H1.73334C0.849676 13.9333 0.133335 13.2169 0.133335 12.3333V1.66665Z" fill="#000714" fill-opacity="0.623529"/>
</svg>
