<svg width="28" height="34" viewBox="0 0 28 34" fill="none" xmlns="http://www.w3.org/2000/svg">
<path d="M17.3333 0.333252H4C3.11594 0.333252 2.2681 0.684441 1.64297 1.30956C1.01785 1.93468 0.666664 2.78253 0.666664 3.66659V30.3333C0.666664 31.2173 1.01785 32.0652 1.64297 32.6903C2.2681 33.3154 3.11594 33.6666 4 33.6666H24C24.8841 33.6666 25.7319 33.3154 26.357 32.6903C26.9821 32.0652 27.3333 31.2173 27.3333 30.3333V10.3333L17.3333 0.333252ZM9.83 23.9833C9.315 24.4666 8.555 24.6833 7.67 24.6833C7.49837 24.6865 7.32675 24.6765 7.15666 24.6532V27.0299H5.66666V20.4699C6.33912 20.3699 7.01854 20.3242 7.69833 20.3333C8.62666 20.3333 9.28666 20.5099 9.73166 20.8649C10.155 21.2016 10.4417 21.7533 10.4417 22.4033C10.44 23.0566 10.2233 23.6083 9.83 23.9833ZM16.175 26.2416C15.475 26.8233 14.41 27.0999 13.1083 27.0999C12.3283 27.0999 11.7767 27.0499 11.4017 26.9999V20.4716C12.0744 20.3738 12.7536 20.3275 13.4333 20.3333C14.695 20.3333 15.515 20.5599 16.155 21.0433C16.8467 21.5566 17.28 22.3749 17.28 23.5499C17.28 24.8216 16.815 25.6999 16.175 26.2416ZM22.3333 21.6166H19.78V23.1349H22.1667V24.3583H19.78V27.0316H18.27V20.3833H22.3333V21.6166ZM17.3333 11.9999H15.6667V3.66659L24 11.9999H17.3333Z" fill="black"/>
</svg>
