<svg width="30" height="34" viewBox="0 0 30 34" fill="none" xmlns="http://www.w3.org/2000/svg">
<path fill-rule="evenodd" clip-rule="evenodd" d="M0 3.4C0 2.49826 0.364697 1.63346 1.01386 0.995837C1.66303 0.358213 2.54348 0 3.46154 0L22.4008 0L30 7.46413V30.6C30 31.5017 29.6353 32.3665 28.9861 33.0042C28.337 33.6418 27.4565 34 26.5385 34H3.46154C2.54348 34 1.66303 33.6418 1.01386 33.0042C0.364697 32.3665 0 31.5017 0 30.6V3.4ZM2.30769 13.6H5.76923C6.68729 13.6 7.56774 13.9582 8.21691 14.5958C8.86607 15.2335 9.23077 16.0983 9.23077 17C9.23077 17.9017 8.86607 18.7665 8.21691 19.4042C7.56774 20.0418 6.68729 20.4 5.76923 20.4H4.61538V24.9333H2.30769V13.6ZM20.7692 13.6H27.6923V15.8667H23.0769V22.6667H25.3846V19.2667H27.6923V24.9333H20.7692V13.6ZM13.8462 19.5341V24.9333H11.5385V13.6H13.8462V14.4659L16.1538 18.9992V13.6H18.4615V24.9333H16.1538V24.0675L13.8462 19.5341Z" fill="black"/>
</svg>
