<svg width="28" height="34" viewBox="0 0 28 34" fill="none" xmlns="http://www.w3.org/2000/svg">
<path fill-rule="evenodd" clip-rule="evenodd" d="M14 0.333252V11.1666C14 11.7881 14.2315 12.3872 14.6494 12.8473C15.0672 13.3073 15.6414 13.5953 16.26 13.6549L16.5 13.6666H27.3333V30.3333C27.3336 31.1742 27.016 31.9842 26.4442 32.6008C25.8723 33.2175 25.0886 33.5952 24.25 33.6583L24 33.6666H3.99999C3.15903 33.6669 2.34905 33.3492 1.73241 32.7774C1.11577 32.2056 0.738062 31.4218 0.67499 30.5833L0.666657 30.3333V3.66659C0.666391 2.82562 0.984001 2.01564 1.55582 1.39901C2.12764 0.78237 2.9114 0.404657 3.74999 0.341585L3.99999 0.333252H14ZM12.8217 15.6216L9.28666 19.1566C9.12747 19.3103 9.0005 19.4942 8.91315 19.6976C8.82581 19.9009 8.77983 20.1196 8.77791 20.3409C8.77598 20.5622 8.81815 20.7817 8.90195 20.9865C8.98575 21.1913 9.10951 21.3774 9.266 21.5339C9.42249 21.6904 9.60857 21.8142 9.8134 21.898C10.0182 21.9818 10.2377 22.0239 10.459 22.022C10.6803 22.0201 10.899 21.9741 11.1023 21.8868C11.3057 21.7994 11.4896 21.6724 11.6433 21.5133L12.3333 20.8233V25.3333C12.3333 25.7753 12.5089 26.1992 12.8215 26.5118C13.134 26.8243 13.558 26.9999 14 26.9999C14.442 26.9999 14.8659 26.8243 15.1785 26.5118C15.4911 26.1992 15.6667 25.7753 15.6667 25.3333V20.8233L16.3567 21.5133C16.5104 21.6724 16.6943 21.7994 16.8976 21.8868C17.101 21.9741 17.3197 22.0201 17.541 22.022C17.7623 22.0239 17.9818 21.9818 18.1866 21.898C18.3914 21.8142 18.5775 21.6904 18.734 21.5339C18.8905 21.3774 19.0142 21.1913 19.098 20.9865C19.1818 20.7817 19.224 20.5622 19.2221 20.3409C19.2201 20.1196 19.1742 19.9009 19.0868 19.6976C18.9995 19.4942 18.8725 19.3103 18.7133 19.1566L15.18 15.6216C15.0252 15.4666 14.8414 15.3437 14.6391 15.2598C14.4367 15.1759 14.2198 15.1328 14.0008 15.1328C13.7818 15.1328 13.5649 15.1759 13.3626 15.2598C13.1603 15.3437 12.9764 15.4666 12.8217 15.6216ZM17.3333 0.404919C17.8723 0.519335 18.3745 0.765567 18.795 1.12159L19 1.30992L26.3567 8.66658C26.7472 9.05677 27.0347 9.53784 27.1933 10.0666L27.26 10.3333H17.3333V0.404919Z" fill="#605BFF"/>
</svg>
