<svg width="30" height="34" viewBox="0 0 30 34" fill="none" xmlns="http://www.w3.org/2000/svg">
<path fill-rule="evenodd" clip-rule="evenodd" d="M0 3.4C0 2.49826 0.364697 1.63346 1.01386 0.995837C1.66303 0.358213 2.54348 0 3.46154 0L22.4008 0L30 7.46413V30.6C30 31.5017 29.6353 32.3665 28.9861 33.0042C28.337 33.6418 27.4565 34 26.5385 34H3.46154C2.54348 34 1.66303 33.6418 1.01386 33.0042C0.364697 32.3665 0 31.5017 0 30.6V3.4ZM4.61538 16.5308V13.6H2.30769V17.4692L4.13769 19.2667L2.30769 21.0641V24.9333H4.61538V22.0025L5.76923 20.8692L6.92308 22.0025V24.9333H9.23077V21.0641L7.40077 19.2667L9.23077 17.4692V13.6H6.92308V16.5308L5.76923 17.6641L4.61538 16.5308ZM11.5385 13.6H13.8462V22.6667H18.4615V24.9333H11.5385V13.6ZM27.6923 13.6H20.7692V20.4H25.3846V22.6667H20.7692V24.9333H27.6923V18.1333H23.0769V15.8667H27.6923V13.6Z" fill="black"/>
</svg>
